<svg width="64" height="64" viewBox="0 0 64 64" fill="none" xmlns="http://www.w3.org/2000/svg">
<g filter="url(#filter0_dd_12107_7678)">
<path d="M12 22C12 10.9543 20.9543 2 32 2C43.0457 2 52 10.9543 52 22C52 33.0457 43.0457 42 32 42C20.9543 42 12 33.0457 12 22Z" fill="white" fill-opacity="0.95" shape-rendering="crispEdges"/>
<path d="M36 19.3334C37.1046 19.3334 38 18.4379 38 17.3334C38 16.2288 37.1046 15.3334 36 15.3334C34.8954 15.3334 34 16.2288 34 17.3334C34 18.4379 34.8954 19.3334 36 19.3334Z" stroke="#4A5565" stroke-width="1.33333" stroke-linecap="round" stroke-linejoin="round"/>
<path d="M28 24C29.1046 24 30 23.1046 30 22C30 20.8954 29.1046 20 28 20C26.8954 20 26 20.8954 26 22C26 23.1046 26.8954 24 28 24Z" stroke="#4A5565" stroke-width="1.33333" stroke-linecap="round" stroke-linejoin="round"/>
<path d="M36 28.6666C37.1046 28.6666 38 27.7712 38 26.6666C38 25.5621 37.1046 24.6666 36 24.6666C34.8954 24.6666 34 25.5621 34 26.6666C34 27.7712 34.8954 28.6666 36 28.6666Z" stroke="#4A5565" stroke-width="1.33333" stroke-linecap="round" stroke-linejoin="round"/>
<path d="M29.7267 23.0067L34.28 25.66" stroke="#4A5565" stroke-width="1.33333" stroke-linecap="round" stroke-linejoin="round"/>
<path d="M34.2734 18.34L29.7267 20.9933" stroke="#4A5565" stroke-width="1.33333" stroke-linecap="round" stroke-linejoin="round"/>
</g>
<defs>
<filter id="filter0_dd_12107_7678" x="0" y="0" width="64" height="64" filterUnits="userSpaceOnUse" color-interpolation-filters="sRGB">
<feFlood flood-opacity="0" result="BackgroundImageFix"/>
<feColorMatrix in="SourceAlpha" type="matrix" values="0 0 0 0 0 0 0 0 0 0 0 0 0 0 0 0 0 0 127 0" result="hardAlpha"/>
<feMorphology radius="4" operator="erode" in="SourceAlpha" result="effect1_dropShadow_12107_7678"/>
<feOffset dy="4"/>
<feGaussianBlur stdDeviation="3"/>
<feComposite in2="hardAlpha" operator="out"/>
<feColorMatrix type="matrix" values="0 0 0 0 0 0 0 0 0 0 0 0 0 0 0 0 0 0 0.1 0"/>
<feBlend mode="normal" in2="BackgroundImageFix" result="effect1_dropShadow_12107_7678"/>
<feColorMatrix in="SourceAlpha" type="matrix" values="0 0 0 0 0 0 0 0 0 0 0 0 0 0 0 0 0 0 127 0" result="hardAlpha"/>
<feMorphology radius="3" operator="erode" in="SourceAlpha" result="effect2_dropShadow_12107_7678"/>
<feOffset dy="10"/>
<feGaussianBlur stdDeviation="7.5"/>
<feComposite in2="hardAlpha" operator="out"/>
<feColorMatrix type="matrix" values="0 0 0 0 0 0 0 0 0 0 0 0 0 0 0 0 0 0 0.1 0"/>
<feBlend mode="normal" in2="effect1_dropShadow_12107_7678" result="effect2_dropShadow_12107_7678"/>
<feBlend mode="normal" in="SourceGraphic" in2="effect2_dropShadow_12107_7678" result="shape"/>
</filter>
</defs>
</svg>
