<svg width="20" height="20" viewBox="0 0 20 20" fill="none" xmlns="http://www.w3.org/2000/svg">
<path d="M12.8975 11.075L14.16 18.18C14.1741 18.2637 14.1624 18.3497 14.1264 18.4265C14.0903 18.5033 14.0317 18.5673 13.9583 18.6098C13.8849 18.6524 13.8003 18.6716 13.7157 18.6648C13.6311 18.6579 13.5506 18.6255 13.485 18.5717L10.5017 16.3325C10.3577 16.2249 10.1827 16.1668 10.0029 16.1668C9.82315 16.1668 9.64819 16.2249 9.50417 16.3325L6.51584 18.5708C6.45027 18.6245 6.36989 18.657 6.28542 18.6638C6.20095 18.6706 6.1164 18.6515 6.04306 18.6091C5.96972 18.5666 5.91107 18.5028 5.87494 18.4261C5.83881 18.3495 5.82691 18.2636 5.84084 18.18L7.10251 11.075" stroke="#FDC700" stroke-width="1.66667" stroke-linecap="round" stroke-linejoin="round"/>
<path d="M10 12C12.7614 12 15 9.76142 15 7C15 4.23858 12.7614 2 10 2C7.23858 2 5 4.23858 5 7C5 9.76142 7.23858 12 10 12Z" stroke="#FDC700" stroke-width="1.66667" stroke-linecap="round" stroke-linejoin="round"/>
</svg>
