<svg width="40" height="40" viewBox="0 0 40 40" fill="none" xmlns="http://www.w3.org/2000/svg">
<path d="M0 10C0 4.47715 4.47715 0 10 0H30C35.5228 0 40 4.47715 40 10V30C40 35.5228 35.5228 40 30 40H10C4.47715 40 0 35.5228 0 30V10Z" fill="#009689"/>
<path d="M19.5624 11.266C19.6056 11.1877 19.669 11.1223 19.746 11.0768C19.8231 11.0312 19.9109 11.0072 20.0004 11.0072C20.0899 11.0072 20.1778 11.0312 20.2548 11.0768C20.3319 11.1223 20.3953 11.1877 20.4384 11.266L23.3904 16.87C23.4608 16.9998 23.5591 17.1124 23.6781 17.1997C23.7972 17.287 23.9341 17.3468 24.079 17.3749C24.224 17.403 24.3733 17.3987 24.5164 17.3622C24.6594 17.3258 24.7926 17.2581 24.9064 17.164L29.1834 13.5C29.2655 13.4333 29.3667 13.3943 29.4724 13.3886C29.5781 13.383 29.6828 13.4111 29.7715 13.4688C29.8602 13.5265 29.9284 13.6109 29.9661 13.7097C30.0038 13.8086 30.0092 13.9169 29.9814 14.019L27.1474 24.265C27.0896 24.4747 26.9649 24.6598 26.7924 24.7923C26.6199 24.9247 26.4089 24.9973 26.1914 24.999H13.8104C13.5928 24.9975 13.3815 24.925 13.2088 24.7926C13.0361 24.6601 12.9113 24.4749 12.8534 24.265L10.0204 14.02C9.99267 13.9179 9.99805 13.8096 10.0358 13.7107C10.0735 13.6119 10.1416 13.5275 10.2303 13.4698C10.319 13.4121 10.4238 13.384 10.5295 13.3896C10.6351 13.3953 10.7363 13.4343 10.8184 13.501L15.0944 17.165C15.2082 17.2591 15.3414 17.3268 15.4845 17.3632C15.6275 17.3997 15.7769 17.404 15.9218 17.3759C16.0668 17.3478 16.2037 17.288 16.3227 17.2007C16.4418 17.1134 16.54 17.0008 16.6104 16.871L19.5624 11.266Z" stroke="white" stroke-width="2" stroke-linecap="round" stroke-linejoin="round"/>
<path d="M13 29H27" stroke="white" stroke-width="2" stroke-linecap="round" stroke-linejoin="round"/>
</svg>
