<svg width="20" height="20" viewBox="0 0 20 20" fill="none" xmlns="http://www.w3.org/2000/svg">
<path d="M10.9335 14.1855L7.43443 12.2768C6.82615 12.9269 5.96053 13.3332 5.00002 13.3332C3.15907 13.3332 1.66669 11.8408 1.66669 9.99984C1.66669 8.15889 3.15907 6.6665 5.00002 6.6665C5.96048 6.6665 6.82606 7.07272 7.43434 7.72272L10.9335 5.81411C10.8681 5.55351 10.8334 5.28073 10.8334 4.99984C10.8334 3.15889 12.3258 1.6665 14.1667 1.6665C16.0076 1.6665 17.5 3.15889 17.5 4.99984C17.5 6.84079 16.0076 8.33317 14.1667 8.33317C13.2062 8.33317 12.3406 7.92693 11.7323 7.27689L8.23316 9.1855C8.2986 9.44609 8.33335 9.71892 8.33335 9.99984C8.33335 10.2808 8.29861 10.5535 8.2332 10.8141L11.7324 12.7228C12.3406 12.0728 13.2062 11.6665 14.1667 11.6665C16.0076 11.6665 17.5 13.1589 17.5 14.9998C17.5 16.8408 16.0076 18.3332 14.1667 18.3332C12.3258 18.3332 10.8334 16.8408 10.8334 14.9998C10.8334 14.7189 10.8681 14.4461 10.9335 14.1855ZM5.00002 11.6665C5.9205 11.6665 6.66669 10.9203 6.66669 9.99984C6.66669 9.07934 5.9205 8.33317 5.00002 8.33317C4.07955 8.33317 3.33335 9.07934 3.33335 9.99984C3.33335 10.9203 4.07955 11.6665 5.00002 11.6665ZM14.1667 6.6665C15.0872 6.6665 15.8334 5.92031 15.8334 4.99984C15.8334 4.07936 15.0872 3.33317 14.1667 3.33317C13.2462 3.33317 12.5 4.07936 12.5 4.99984C12.5 5.92031 13.2462 6.6665 14.1667 6.6665ZM14.1667 16.6665C15.0872 16.6665 15.8334 15.9203 15.8334 14.9998C15.8334 14.0793 15.0872 13.3332 14.1667 13.3332C13.2462 13.3332 12.5 14.0793 12.5 14.9998C12.5 15.9203 13.2462 16.6665 14.1667 16.6665Z" fill="#475569"/>
</svg>
