<svg width="16" height="16" viewBox="0 0 16 16" fill="none" xmlns="http://www.w3.org/2000/svg">
<path d="M7.30822 2.12908C7.52596 1.45893 8.47404 1.45894 8.69178 2.12908L9.63281 5.02526C9.73018 5.32495 10.0095 5.52786 10.3246 5.52786H13.3698C14.0744 5.52786 14.3674 6.42954 13.7973 6.84371L11.3337 8.63364C11.0788 8.81887 10.9721 9.14718 11.0695 9.44688L12.0105 12.3431C12.2282 13.0132 11.4612 13.5705 10.8912 13.1563L8.42754 11.3664C8.17261 11.1811 7.82739 11.1811 7.57246 11.3664L5.10882 13.1563C4.53876 13.5705 3.77176 13.0132 3.9895 12.3431L4.93052 9.44688C5.0279 9.14718 4.92122 8.81887 4.66629 8.63364L2.20265 6.84371C1.63259 6.42954 1.92556 5.52786 2.6302 5.52786H5.67542C5.99054 5.52786 6.26982 5.32495 6.3672 5.02526L7.30822 2.12908Z" fill="#F97316"/>
</svg>
